Coordinates
version=1
nRows=54
nColumns=12
inDegrees=yes

Units are S.I. units (second, meters, Newtons, ...)
Angles are in degrees

endheader
time	SC_y	SC_z	SC_x	AC_y	AC_z	AC_x	GH_y	GH_z	GH_yy	EL_x	PS_y
       0.0              -41.63          10.79          26.65          68.79         -17.82         -13.28         -122.6          9.529          -51.0          64.19          70.95
   0.02823              -41.63          10.79          26.66          68.79         -17.82         -13.28         -122.6          9.532         -50.99          64.19          70.96
   0.05647              -41.62          10.79          26.66          68.78         -17.82         -13.28         -122.6          9.535         -50.98           64.2          70.97
    0.0847              -41.62          10.79          26.67          68.78         -17.81         -13.28         -122.6          9.538         -50.97          64.21          70.99
    0.1129              -41.61          10.79          26.67          68.78         -17.81         -13.28         -122.6          9.541         -50.96          64.22           71.0
    0.1412              -41.61          10.79          26.68          68.78         -17.81         -13.29         -122.6          9.544         -50.95          64.23          71.01
    0.1694               -41.6          10.79          26.69          68.77         -17.81         -13.29         -122.6          9.548         -50.94          64.24          71.03
    0.1976               -41.6          10.79          26.69          68.77          -17.8         -13.29         -122.6          9.552         -50.93          64.26          71.04
    0.2259              -41.59          10.79           26.7          68.76          -17.8         -13.29         -122.5          9.556         -50.91          64.27          71.06
    0.2541              -41.59          10.79          26.71          68.76         -17.79         -13.29         -122.5           9.56          -50.9          64.28          71.08
    0.2823              -41.58          10.79          26.72          68.76         -17.79         -13.29         -122.5          9.565         -50.89           64.3           71.1
    0.3106              -41.57          10.79          26.73          68.75         -17.79         -13.29         -122.5           9.57         -50.87          64.31          71.12
    0.3388              -41.56           10.8          26.74          68.75         -17.78          -13.3         -122.5          9.576         -50.85          64.33          71.14
    0.3671              -41.56           10.8          26.75          68.74         -17.78          -13.3         -122.5          9.582         -50.84          64.35          71.17
    0.3953              -41.55           10.8          26.76          68.74         -17.77          -13.3         -122.4          9.588         -50.82          64.37          71.19
    0.4235              -41.54           10.8          26.77          68.73         -17.77          -13.3         -122.4          9.595         -50.79          64.39          71.22
    0.4518              -41.53           10.8          26.78          68.72         -17.76         -13.31         -122.4          9.603         -50.77          64.42          71.25
      0.48              -41.51           10.8           26.8          68.71         -17.75         -13.31         -122.4          9.611         -50.74          64.44          71.29
    0.5082               -41.5           10.8          26.81          68.71         -17.74         -13.31         -122.3           9.62         -50.72          64.47          71.33
    0.5365              -41.49           10.8          26.83           68.7         -17.74         -13.32         -122.3           9.63         -50.69           64.5          71.37
    0.5647              -41.47           10.8          26.85          68.69         -17.73         -13.32         -122.3          9.641         -50.65          64.54          71.41
    0.5929              -41.45           10.8          26.87          68.68         -17.72         -13.32         -122.2          9.653         -50.62          64.57          71.46
    0.6212              -41.43           10.8          26.89          68.66         -17.71         -13.33         -122.2          9.666         -50.58          64.62          71.52
    0.6494              -41.41           10.8          26.92          68.65         -17.69         -13.33         -122.1           9.68         -50.53          64.66          71.58
    0.6776              -41.39          10.81          26.95          68.64         -17.68         -13.34         -122.1          9.697         -50.48          64.71          71.64
    0.7059              -41.36          10.81          26.98          68.62         -17.66         -13.35         -122.0          9.715         -50.43          64.77          71.72
    0.7341              -41.33          10.81          27.02           68.6         -17.65         -13.35         -122.0          9.735         -50.36          64.83           71.8
    0.7623               -41.3          10.81          27.06          68.58         -17.63         -13.36         -121.9          9.758         -50.29          64.91           71.9
    0.7906              -41.26          10.81           27.1          68.56         -17.61         -13.37         -121.8          9.784         -50.21          64.99           72.0
    0.8188              -41.22          10.82          27.16          68.53         -17.58         -13.38         -121.7          9.813         -50.12          65.08          72.13
     0.847              -41.17          10.82          27.21           68.5         -17.55         -13.39         -121.6          9.847         -50.02          65.19          72.26
    0.8753              -41.12          10.82          27.28          68.46         -17.52          -13.4         -121.5          9.885          -49.9          65.31          72.42
    0.9035              -41.05          10.83          27.36          68.42         -17.48         -13.42         -121.4           9.93         -49.77          65.45          72.61
    0.9317              -40.98          10.83          27.45          68.38         -17.44         -13.44         -121.2          9.981         -49.61          65.61          72.82
      0.96              -40.89          10.84          27.56          68.32         -17.39         -13.46         -121.0          10.04         -49.42           65.8          73.07
    0.9882              -40.79          10.84          27.68          68.26         -17.33         -13.48         -120.8          10.11          -49.2          66.02          73.36
     1.016              -40.66          10.85          27.83          68.18         -17.26         -13.51         -120.5           10.2         -48.94          66.29          73.71
     1.045              -40.52          10.86          28.01          68.09         -17.17         -13.55         -120.2           10.3         -48.63          66.61          74.13
     1.073              -40.34          10.87          28.23          67.98         -17.07         -13.59         -119.8          10.42         -48.26          66.99          74.64
     1.101              -40.12          10.88          28.49          67.84         -16.94         -13.64         -119.3          10.57          -47.8          67.47          75.26
     1.129              -39.85           10.9          28.82          67.67         -16.79         -13.71         -118.8          10.76         -47.23          68.05          76.03
     1.158              -39.52          10.92          29.23          67.46         -16.59         -13.79         -118.0          10.99         -46.52          68.77          76.98
     1.186               -39.1          10.94          29.74          67.19         -16.35         -13.89         -117.1          11.28         -45.63          69.69          78.18
     1.214              -38.57          10.98          30.39          66.86         -16.04         -14.02         -116.0          11.65         -44.49          70.85          79.71
     1.242              -37.88          11.02          31.23          66.43         -15.64         -14.18         -114.5          12.12         -43.04          72.34          81.66
     1.271               -37.0          11.07           32.3          65.87         -15.13         -14.39         -112.6          12.73         -41.18          74.25          84.17
     1.299              -35.88          11.14          33.67          65.17         -14.48         -14.66         -110.1           13.5          -38.8          76.69          87.38
     1.327              -34.47          11.22          35.39          64.28         -13.66          -15.0         -107.1          14.47         -35.81          79.75           91.4
     1.355              -32.75          11.32          37.48           63.2         -12.66         -15.41         -103.3          15.66         -32.16          83.49          96.31
     1.384              -30.76          11.44          39.91          61.94          -11.5         -15.89         -99.02          17.04         -27.94          87.82          102.0
     1.412               -28.6          11.57          42.54          60.58         -10.24         -16.41         -94.33          18.53         -23.36          92.51          108.2
      1.44              -26.44           11.7          45.18          59.23          -8.99         -16.93         -89.65          20.02         -18.78           97.2          114.3
     1.468              -24.45          11.82          47.61          57.97         -7.832         -17.41         -85.32          21.39         -14.56          101.5          120.0
     1.496              -22.73          11.92           49.7          56.89         -6.832         -17.82         -81.59          22.58         -10.91          105.3          124.9
